<svg xmlns="http://www.w3.org/2000/svg" viewBox="0 0 231 231"><path d="M33.83,33.83a115.5,115.5,0,1,1,0,163.34,115.49,115.49,0,0,1,0-163.34Z" style="fill:#FF9800;"/><path d="m115.5 51.75a63.75 63.75 0 0 0-10.5 126.63v14.09a115.5 115.5 0 0 0-53.729 19.027 115.5 115.5 0 0 0 128.46 0 115.5 115.5 0 0 0-53.729-19.029v-14.084a63.75 63.75 0 0 0 53.25-62.881 63.75 63.75 0 0 0-63.65-63.75 63.75 63.75 0 0 0-0.09961 0z" style="fill:#ffc016;"/><path d="m141.75 195a114.79 114.79 0 0 1 38 16.5 115.53 115.53 0 0 1-128.46 0 114.79 114.79 0 0 1 38-16.5c0 10.76 11.75 19.48 26.25 19.48s26.25-8.72 26.25-19.48z" style="fill:#f06;"/><path d="m92.502 194.27v0.70391c0 4.3033 2.4373 8.2583 6.3807 11.183 4.2199 3.1204 10.106 5.0508 16.661 5.0508 6.548 0 12.434-1.9303 16.654-5.0508 3.9434-2.9245 6.388-6.8795 6.388-11.183v-0.67489c1.0768 0.21771 2.1463 0.44994 3.2158 0.69666h-7e-3c1.0695 0.24672 2.1318 0.50798 3.1867 0.791-0.27648 6.103-3.6524 11.553-8.9708 15.493-5.2821 3.9114-12.521 6.328-20.466 6.328-7.9449 0-15.184-2.4165-20.474-6.328-5.333-3.9477-8.7089-9.4194-8.9708-15.544 1.055-0.27577 2.1099-0.53702 3.1722-0.78376 1.0695-0.23947 2.1463-0.46443 3.2304-0.68213z" style="fill:#8e0039;"/><path d="m41.668 87.073c-9.2319-0.0231-11.63 6.5104 2.2676 17.66-14.015 1.1231-4.3662 16.457 4.875 24.66 4.0686 3.0199 6.4647 5.4657 5.5078 1.1348-1.2079-4.9178-1.8184-9.9634-1.8184-15.027 3.26e-4 -7.5692 1.2547-15.016 3.7883-22.183 0.57048-1.7876 1.0689-2.0306-0.37721-2.6839-5.5405-2.4478-10.375-3.5511-14.243-3.5608z" style="fill:none;"/><path d="m185.48 89.513c-2.4418-0.11189-5.4618 0.81187-9.5148 3.2121-1.314 0.81729-0.70075 1.995-0.32301 3.2653 3.194 10.982 3.8215 22.462 1.2538 33.628-0.31613 1.688-0.47649 3.569 2.6953 1.3516 7.7016-5.371 19.17-18.734 16.918-26.105-1.4251-3.9177-11.4-0.35546-11.4-0.35546s4.987-4.2755 5.3437-9.6191c0.20048-3.0057-1.5237-5.2189-4.9726-5.377z" style="fill:#792B74;"/><path d="m91.689 36.108c-3.7298-7.3864-9.5859-10.504-17.578-6.7891-9.5194 4.5907-15.629 18.444-13.416 29.232 0 0-8.5511-4.9878-18.17-3.5625-19.623 8.094-1.4102 29.869 10.817 37.342 2.075 1.297 2.5792 1.7432 3.4291-0.37685 2.6746-6.5374 6.1886-12.722 11.297-17.709 4.1039 8.7427 14.629 4.1809 20.006-0.14062 4.4873 9.6838 10.377 6.3535 15.377 3.4785 4.0764 7.8829 10.756 7.25 17.631 0.0625 4.875 4.5625 14.713 4.1867 15.555-3.426 8.4753 2.6244 14.012 10.437 22.962-1.4764 8.8552 6.8221 14.407 16.853 17.122 27.51 0.34 1.554 1.175 0.85565 2.2212 0.44315 10.255-4.286 22.842-15.749 15.705-23.975-3.5623-3.5623-13.539-2.1387-13.539-2.1387s6.77-7.1233 9.2637-18.168c2.4936-11.043-23.514-4.9883-23.514-4.9883s7.4818-5.6993 12.113-13.537c4.6314-7.8378-2.4943-11.756-11.045-11.043-8.5496 0.71204-17.1 7.4805-17.1 7.4805s3.3946-7.8055-3.5625-12.826c-9.5935-6.9234-23.869 6.4121-23.869 6.4121-4.2562-26.835-24.872-6.386-31.707 8.1953z" style="fill:#792B74;"/><path d="m170.25 100c1.69 9.62-4.79 29.23-22.4 29.23-6.81 0-15-3.66-20.23-10-4.34-5.33-7.56-12.87-6.2-19.45 1.63-7.89 7.07-11.45 14.67-12.92a68.16 68.16 0 0 1 12.52-1c10.77 0 19.78 3.61 21.64 14.22z" style="fill:#e91e63;stroke-width:3.99px;stroke:#000;"/><path d="m60.75 100c-1.69 9.62 4.79 29.23 22.4 29.23 6.81 0 15-3.66 20.23-10 4.34-5.33 7.56-12.87 6.2-19.45-1.63-7.89-7.07-11.45-14.67-12.92a68.16 68.16 0 0 0-12.52-1c-10.77 0-19.78 3.61-21.64 14.22z" style="fill:#e91e63;stroke-width:3.99px;stroke:#000;"/><line x1="100.2" x2="130.8" y1="87.92" y2="87.92" style="fill:none;stroke-linecap:round;stroke-linejoin:round;stroke-width:3.99px;stroke:#000;"/><path d="m109.87 101.73c0-2.59 2.52-4.69 5.63-4.69s5.63 2.1 5.63 4.69" style="fill:none;stroke-width:3.99px;stroke:#000;"/><path d="m118.57 165.14a8.66 8.66 0 0 0-2.76-4.23h-0.62a8 8 0 0 0-2.76 4.22c-0.52 1.89 2.07 10.61 2.76 12.53h0.62c0.64-1.76 3.19-10.82 2.76-12.52z" style="fill:#191919;"/><path d="m102.81 152.24a2.4921 2.4921 0 1 1 1.19-4.84l0.21 0.06a37.1 37.1 0 0 0 5.43 1.12 44.52 44.52 0 0 0 11.76 0 37.1 37.1 0 0 0 5.43-1.12 2.4903 2.4903 0 0 1 1.59 4.72l-0.21 0.06a43.08 43.08 0 0 1-6.15 1.29 48.55 48.55 0 0 1-13.08 0 42.79 42.79 0 0 1-6.17-1.29z" style="fill:#191919;"/></svg>