<svg xmlns="http://www.w3.org/2000/svg" viewBox="0 0 231 231"><path d="M33.83,33.83a115.5,115.5,0,1,1,0,163.34,115.49,115.49,0,0,1,0-163.34Z" style="fill:#ffe926;"/><path d="m115.5 51.75a63.75 63.75 0 0 0-10.5 126.63v14.09a115.5 115.5 0 0 0-53.729 19.027 115.5 115.5 0 0 0 128.46 0 115.5 115.5 0 0 0-53.729-19.029v-14.084a63.75 63.75 0 0 0 53.25-62.881 63.75 63.75 0 0 0-63.65-63.75 63.75 63.75 0 0 0-0.09961 0z" style="fill:#e8bc86;"/><path d="m116 203.13c-0.12 0-0.25 0.12-0.49 0.12s-0.25-0.12-0.49-0.12zm-27.29-8c0.87-0.25 1.72-0.47 2.56-0.69a32.37 32.37 0 0 0 0.3 8.57 21.5 21.5 0 0 0 7 6.88c6.41-6 16.8-6.64 16.8-6.64s10.5 0.58 17 6.69a21.61 21.61 0 0 0 6.93-6.66 32.34 32.34 0 0 0 0.35-8.84l2.13 0.56a114.79 114.79 0 0 1 38 16.5 115.53 115.53 0 0 1-128.46 0 114.64 114.64 0 0 1 37.38-16.37z" style="fill:#000;"/><path d="m126.15 206-3.92 7.83h-13.46l-3.92-7.83a36.59 36.59 0 0 1 10.65-2.7 35.66 35.66 0 0 1 10.65 2.7z" style="fill:#ff2500;"/><path d="m124.54 230.65-2.18-16.74h-13.47l-2.19 16.76c2.9 0.22 5.84 0.33 8.8 0.33s6.06-0.12 9-0.35z" style="fill:#ff2500;"/><path d="m134.84 186s0.86 9.8-19.34 17.26c0 0 15.79 0.86 20.57 11.76 0.12 0.49 9.3-23.26-1.23-29z" style="fill:#fff;"/><path d="m96.16 186c-10.41 5.76-1.35 29.39-1.1 29 4.65-10.78 20.56-11.76 20.56-11.76-20.32-7.45-19.46-17.24-19.46-17.24z" style="fill:#fff;"/><path d="m32.902 67.662c-0.36295 1.7227-6.2342 30.695 5.6133 52.596 4.5843 8.4743 9.0081 13.239 12.75 15.893a67.7 67.7 0 0 1-3.4688-21.35 67.7 67.7 0 0 1 2.332-17.658c-4.4914-2.4646-10.868-6.9012-13.834-13.52-4.1626-9.285-3.6155-14.673-3.3926-15.961zm165.19 0c0.22292 1.2882 0.77005 6.6759-3.3926 15.961-2.9664 6.6183-9.3426 11.055-13.834 13.52a67.7 67.7 0 0 1 2.332 17.658 67.7 67.7 0 0 1-3.4688 21.35c3.7419-2.6532 8.1657-7.4183 12.75-15.893 11.847-21.9 5.9762-50.873 5.6133-52.596z" style="fill:#a21d00;"/><path d="m115.73 13.191c-7.3787-0.13351-13.509 5.7888-13.631 13.168-0.10128 5.8827 3.4508 10.518 8.0566 12.52 1.061 0.46115 2.1869 0.78009 3.3418 0.95703v8.4291c0.66778-0.02035 1.3358-0.03077 2.0039-0.03125 0.66547-9e-5 1.3309 0.0097 1.9961 0.0293v-8.4115c2.6002-0.38406 5.1586-1.5484 7.3086-3.625 4.2322-4.0878 4.9991-9.8755 3.1582-14.549-1.8407-4.6726-6.3502-8.3834-12.232-8.4863z" style="fill:#fff;"/><path d="m161.73 86.016h-92.51c-3.37 0-6.0001 2.3998-6.0001 5.2999v28.45c0 3.0002 2.74 5.3001 6.0001 5.3001h32.36c7.0901 0 7.44-19.43 13.82-19.43s6.8801 19.44 13.83 19.44h32.36c3.37 0 5.9999-2.4 5.9999-5.3001v-28.46c0.14043-2.9001-2.6-5.2999-5.9-5.2999z" style="fill:#7fb5a2;"/><path d="m161.73 86.016h-92.51c-3.37 0-6.0001 2.3998-6.0001 5.2999v28.45l104.55-28.45c0-2.9001-2.74-5.2999-5.9999-5.2999z" style="fill:#d1eddf;"/><path d="m161.73 86.016h-92.51c-3.37 0-6.0001 2.3998-6.0001 5.2999v28.45c0 3.0002 2.74 5.3001 6.0001 5.3001h32.36c7.0901 0 7.44-19.43 13.82-19.43s6.8801 19.44 13.83 19.44h32.36c3.37 0 5.9999-2.4 5.9999-5.3001v-28.46c0.14043-2.9001-2.6-5.2999-5.9-5.2999z" style="fill:none;stroke-linecap:round;stroke-linejoin:round;stroke-width:4.0026px;stroke:#301e19;"/><path d="m118.57 165.14a8.66 8.66 0 0 0-2.76-4.23h-0.62a8 8 0 0 0-2.76 4.22c-0.52 1.89 2.07 10.61 2.76 12.53h0.62c0.64-1.76 3.19-10.82 2.76-12.52z" style="fill:#191919;"/><path d="m102.81 152.24a2.4921 2.4921 0 1 1 1.19-4.84l0.21 0.06a37.1 37.1 0 0 0 5.43 1.12 44.52 44.52 0 0 0 11.76 0 37.1 37.1 0 0 0 5.43-1.12 2.4903 2.4903 0 0 1 1.59 4.72l-0.21 0.06a43.08 43.08 0 0 1-6.15 1.29 48.55 48.55 0 0 1-13.08 0 42.79 42.79 0 0 1-6.17-1.29z" style="fill:#191919;"/></svg>